<mxfile host="app.diagrams.net" modified="2022-06-18T16:07:27.705Z" agent="5.0 (X11; Linux x86_64) AppleWebKit/537.36 (KHTML, like Gecko) Chrome/101.0.0.0 Safari/537.36" etag="MPOngETGXUoT0fH5iEKh" version="20.0.1" type="github" pages="2">
  <diagram id="C5RBs43oDa-KdzZeNtuy" name="Main Project">
    <mxGraphModel dx="1822" dy="825" grid="0" gridSize="18" guides="1" tooltips="1" connect="1" arrows="1" fold="1" page="0" pageScale="1" pageWidth="827" pageHeight="1169" background="#182E3E" math="0" shadow="0">
      <root>
        <mxCell id="WIyWlLk6GJQsqaUBKTNV-0" />
        <mxCell id="WIyWlLk6GJQsqaUBKTNV-1" parent="WIyWlLk6GJQsqaUBKTNV-0" />
        <mxCell id="5GM8z4mOyGDel2PGZHQb-1" value="42 Reverse Engineering Project" style="ellipse;whiteSpace=wrap;html=1;aspect=fixed;rounded=0;sketch=0;strokeColor=#36393d;fillColor=#cce5ff;" parent="WIyWlLk6GJQsqaUBKTNV-1" vertex="1">
          <mxGeometry x="228" y="621" width="175" height="175" as="geometry" />
        </mxCell>
        <mxCell id="5GM8z4mOyGDel2PGZHQb-2" value="" style="edgeStyle=elbowEdgeStyle;elbow=horizontal;endArrow=classic;html=1;rounded=1;sketch=0;fontColor=#FFFFFF;strokeColor=#FFFFFF;curved=0;exitX=1;exitY=0.5;exitDx=0;exitDy=0;" parent="WIyWlLk6GJQsqaUBKTNV-1" source="5GM8z4mOyGDel2PGZHQb-1" target="5GM8z4mOyGDel2PGZHQb-6" edge="1">
          <mxGeometry width="50" height="50" relative="1" as="geometry">
            <mxPoint x="439" y="822" as="sourcePoint" />
            <mxPoint x="527" y="813" as="targetPoint" />
          </mxGeometry>
        </mxCell>
        <mxCell id="5GM8z4mOyGDel2PGZHQb-6" value="Decoding Library [x86/x86_64/ARM]&lt;br&gt;Other Architecture" style="shape=ext;double=1;whiteSpace=wrap;html=1;aspect=fixed;rounded=0;sketch=0;fontColor=#ffffff;strokeColor=#001DBC;fillColor=#0050ef;glass=0;shadow=0;labelBorderColor=none;labelBackgroundColor=none;" parent="WIyWlLk6GJQsqaUBKTNV-1" vertex="1">
          <mxGeometry x="682" y="535" width="136" height="136" as="geometry" />
        </mxCell>
        <mxCell id="5GM8z4mOyGDel2PGZHQb-7" value="" style="edgeStyle=elbowEdgeStyle;elbow=vertical;endArrow=classic;html=1;rounded=1;sketch=0;fontColor=#FFFFFF;strokeColor=#FFFFFF;curved=0;entryX=0.5;entryY=0;entryDx=0;entryDy=0;" parent="WIyWlLk6GJQsqaUBKTNV-1" source="5GM8z4mOyGDel2PGZHQb-1" target="5GM8z4mOyGDel2PGZHQb-8" edge="1">
          <mxGeometry width="50" height="50" relative="1" as="geometry">
            <mxPoint x="314" y="886" as="sourcePoint" />
            <mxPoint x="560" y="880" as="targetPoint" />
          </mxGeometry>
        </mxCell>
        <mxCell id="5GM8z4mOyGDel2PGZHQb-8" value="GUI For Disassembler&lt;br&gt;(SDL)" style="shape=ext;double=1;whiteSpace=wrap;html=1;aspect=fixed;rounded=0;sketch=0;fontColor=#ffffff;strokeColor=#001DBC;fillColor=#0050ef;glass=0;shadow=0;labelBorderColor=none;labelBackgroundColor=none;" parent="WIyWlLk6GJQsqaUBKTNV-1" vertex="1">
          <mxGeometry x="495" y="912" width="136" height="136" as="geometry" />
        </mxCell>
        <mxCell id="5GM8z4mOyGDel2PGZHQb-11" value="" style="edgeStyle=elbowEdgeStyle;elbow=vertical;endArrow=classic;html=1;rounded=1;sketch=0;fontColor=#FFFFFF;strokeColor=#FFFFFF;curved=0;exitX=0.5;exitY=1;exitDx=0;exitDy=0;entryX=0.5;entryY=0;entryDx=0;entryDy=0;" parent="WIyWlLk6GJQsqaUBKTNV-1" source="5GM8z4mOyGDel2PGZHQb-1" target="5GM8z4mOyGDel2PGZHQb-14" edge="1">
          <mxGeometry width="50" height="50" relative="1" as="geometry">
            <mxPoint x="139" y="796" as="sourcePoint" />
            <mxPoint x="175" y="731" as="targetPoint" />
            <Array as="points">
              <mxPoint x="94" y="858" />
              <mxPoint x="-133" y="813" />
            </Array>
          </mxGeometry>
        </mxCell>
        <mxCell id="5GM8z4mOyGDel2PGZHQb-12" value="" style="edgeStyle=elbowEdgeStyle;elbow=vertical;endArrow=classic;html=1;rounded=1;sketch=0;fontColor=#FFFFFF;strokeColor=#FFFFFF;curved=0;exitX=0.5;exitY=1;exitDx=0;exitDy=0;" parent="WIyWlLk6GJQsqaUBKTNV-1" source="5GM8z4mOyGDel2PGZHQb-1" edge="1">
          <mxGeometry width="50" height="50" relative="1" as="geometry">
            <mxPoint x="92" y="829" as="sourcePoint" />
            <mxPoint x="148" y="922" as="targetPoint" />
            <Array as="points">
              <mxPoint x="-10" y="832" />
            </Array>
          </mxGeometry>
        </mxCell>
        <mxCell id="5GM8z4mOyGDel2PGZHQb-13" value="Local Debugger Using&lt;br&gt;Ptrace and Decoding Library" style="shape=ext;double=1;whiteSpace=wrap;html=1;aspect=fixed;rounded=0;sketch=0;fontColor=#ffffff;strokeColor=#001DBC;fillColor=#0050ef;glass=0;shadow=0;labelBorderColor=none;labelBackgroundColor=none;" parent="WIyWlLk6GJQsqaUBKTNV-1" vertex="1">
          <mxGeometry x="83" y="921" width="136" height="136" as="geometry" />
        </mxCell>
        <mxCell id="5GM8z4mOyGDel2PGZHQb-14" value="API and Bindings&lt;br&gt;(C, JS, GO, RUST)" style="shape=ext;double=1;whiteSpace=wrap;html=1;aspect=fixed;rounded=0;sketch=0;fontColor=#ffffff;strokeColor=#001DBC;fillColor=#0050ef;glass=0;shadow=0;labelBorderColor=none;labelBackgroundColor=none;" parent="WIyWlLk6GJQsqaUBKTNV-1" vertex="1">
          <mxGeometry x="-202" y="921" width="136" height="136" as="geometry" />
        </mxCell>
        <mxCell id="5GM8z4mOyGDel2PGZHQb-16" value="" style="edgeStyle=elbowEdgeStyle;elbow=vertical;endArrow=classic;html=1;rounded=1;sketch=0;fontColor=#FFFFFF;strokeColor=#FFFFFF;curved=0;exitX=0;exitY=0.5;exitDx=0;exitDy=0;" parent="WIyWlLk6GJQsqaUBKTNV-1" source="5GM8z4mOyGDel2PGZHQb-1" edge="1">
          <mxGeometry width="50" height="50" relative="1" as="geometry">
            <mxPoint x="47" y="735" as="sourcePoint" />
            <mxPoint x="-136" y="587" as="targetPoint" />
          </mxGeometry>
        </mxCell>
        <mxCell id="5GM8z4mOyGDel2PGZHQb-17" value="Network Features (Network Debugger, Disas file over network)" style="shape=ext;double=1;whiteSpace=wrap;html=1;aspect=fixed;rounded=0;sketch=0;fontColor=#ffffff;strokeColor=#001DBC;fillColor=#0050ef;glass=0;shadow=0;labelBorderColor=none;labelBackgroundColor=none;" parent="WIyWlLk6GJQsqaUBKTNV-1" vertex="1">
          <mxGeometry x="-205" y="450" width="136" height="136" as="geometry" />
        </mxCell>
        <mxCell id="5GM8z4mOyGDel2PGZHQb-18" value="" style="edgeStyle=elbowEdgeStyle;elbow=vertical;endArrow=classic;html=1;rounded=1;sketch=0;fontColor=#FFFFFF;strokeColor=#FFFFFF;curved=0;exitX=0;exitY=0;exitDx=0;exitDy=0;" parent="WIyWlLk6GJQsqaUBKTNV-1" source="5GM8z4mOyGDel2PGZHQb-1" edge="1">
          <mxGeometry width="50" height="50" relative="1" as="geometry">
            <mxPoint x="247" y="576" as="sourcePoint" />
            <mxPoint x="27" y="599" as="targetPoint" />
          </mxGeometry>
        </mxCell>
        <mxCell id="5GM8z4mOyGDel2PGZHQb-20" value="Vulnerability and Exploit Features" style="shape=ext;double=1;whiteSpace=wrap;html=1;aspect=fixed;rounded=0;sketch=0;fontColor=#ffffff;strokeColor=#001DBC;fillColor=#0050ef;glass=0;shadow=0;labelBorderColor=none;labelBackgroundColor=none;" parent="WIyWlLk6GJQsqaUBKTNV-1" vertex="1">
          <mxGeometry x="-41" y="460" width="136" height="136" as="geometry" />
        </mxCell>
        <mxCell id="5GM8z4mOyGDel2PGZHQb-21" value="" style="edgeStyle=elbowEdgeStyle;elbow=vertical;endArrow=classic;html=1;rounded=1;sketch=0;fontColor=#FFFFFF;strokeColor=#FFFFFF;curved=0;" parent="WIyWlLk6GJQsqaUBKTNV-1" edge="1">
          <mxGeometry width="50" height="50" relative="1" as="geometry">
            <mxPoint x="139" y="621" as="sourcePoint" />
            <mxPoint x="188" y="596" as="targetPoint" />
          </mxGeometry>
        </mxCell>
        <mxCell id="5GM8z4mOyGDel2PGZHQb-22" value="Detect Evasion Techniques, unpacking, Unobfuscate, Cryptography" style="shape=ext;double=1;whiteSpace=wrap;html=1;aspect=fixed;rounded=0;sketch=0;fontColor=#ffffff;strokeColor=#001DBC;fillColor=#0050ef;glass=0;shadow=0;labelBorderColor=none;labelBackgroundColor=none;" parent="WIyWlLk6GJQsqaUBKTNV-1" vertex="1">
          <mxGeometry x="123" y="460" width="136" height="136" as="geometry" />
        </mxCell>
        <mxCell id="5GM8z4mOyGDel2PGZHQb-23" value="" style="edgeStyle=elbowEdgeStyle;elbow=horizontal;endArrow=classic;html=1;rounded=1;sketch=0;fontColor=#FFFFFF;strokeColor=#FFFFFF;curved=0;exitX=0.5;exitY=0;exitDx=0;exitDy=0;" parent="WIyWlLk6GJQsqaUBKTNV-1" source="5GM8z4mOyGDel2PGZHQb-1" edge="1">
          <mxGeometry width="50" height="50" relative="1" as="geometry">
            <mxPoint x="322" y="589" as="sourcePoint" />
            <mxPoint x="344" y="507" as="targetPoint" />
          </mxGeometry>
        </mxCell>
        <mxCell id="5GM8z4mOyGDel2PGZHQb-24" value="Client Console like radare2 inpute prompt like readline" style="shape=ext;double=1;whiteSpace=wrap;html=1;aspect=fixed;rounded=0;sketch=0;fontColor=#ffffff;strokeColor=#001DBC;fillColor=#0050ef;glass=0;shadow=0;labelBorderColor=none;labelBackgroundColor=none;" parent="WIyWlLk6GJQsqaUBKTNV-1" vertex="1">
          <mxGeometry x="344" y="438" width="136" height="136" as="geometry" />
        </mxCell>
        <mxCell id="5GM8z4mOyGDel2PGZHQb-25" value="" style="edgeStyle=elbowEdgeStyle;elbow=horizontal;endArrow=classic;html=1;rounded=1;sketch=0;fontColor=#FFFFFF;strokeColor=#FFFFFF;curved=0;entryX=1;entryY=0.441;entryDx=0;entryDy=0;entryPerimeter=0;" parent="WIyWlLk6GJQsqaUBKTNV-1" source="5GM8z4mOyGDel2PGZHQb-1" target="5GM8z4mOyGDel2PGZHQb-26" edge="1">
          <mxGeometry width="50" height="50" relative="1" as="geometry">
            <mxPoint x="-110" y="742" as="sourcePoint" />
            <mxPoint x="158" y="696" as="targetPoint" />
          </mxGeometry>
        </mxCell>
        <mxCell id="5GM8z4mOyGDel2PGZHQb-26" value="Decompiler Like Ghidra" style="shape=ext;double=1;whiteSpace=wrap;html=1;aspect=fixed;rounded=0;sketch=0;fontColor=#ffffff;strokeColor=#001DBC;fillColor=#0050ef;glass=0;shadow=0;labelBorderColor=none;labelBackgroundColor=none;" parent="WIyWlLk6GJQsqaUBKTNV-1" vertex="1">
          <mxGeometry x="-318" y="656" width="136" height="136" as="geometry" />
        </mxCell>
        <mxCell id="5GM8z4mOyGDel2PGZHQb-27" value="" style="edgeStyle=elbowEdgeStyle;elbow=vertical;endArrow=classic;html=1;rounded=1;sketch=0;fontColor=#FFFFFF;strokeColor=#FFFFFF;curved=0;exitX=1;exitY=1;exitDx=0;exitDy=0;entryX=0.5;entryY=0;entryDx=0;entryDy=0;" parent="WIyWlLk6GJQsqaUBKTNV-1" source="5GM8z4mOyGDel2PGZHQb-1" edge="1" target="5GM8z4mOyGDel2PGZHQb-28">
          <mxGeometry width="50" height="50" relative="1" as="geometry">
            <mxPoint x="600" y="799" as="sourcePoint" />
            <mxPoint x="763" y="815" as="targetPoint" />
          </mxGeometry>
        </mxCell>
        <mxCell id="5GM8z4mOyGDel2PGZHQb-28" value="Compile Library in WebAssembly to use in web browser" style="shape=ext;double=1;whiteSpace=wrap;html=1;aspect=fixed;rounded=0;sketch=0;fontColor=#ffffff;strokeColor=#001DBC;fillColor=#0050ef;glass=0;shadow=0;labelBorderColor=none;labelBackgroundColor=none;" parent="WIyWlLk6GJQsqaUBKTNV-1" vertex="1">
          <mxGeometry x="705" y="821" width="136" height="136" as="geometry" />
        </mxCell>
        <mxCell id="5GM8z4mOyGDel2PGZHQb-29" value="" style="edgeStyle=elbowEdgeStyle;elbow=vertical;endArrow=classic;html=1;rounded=1;sketch=0;fontColor=#FFFFFF;strokeColor=#FFFFFF;curved=0;exitX=1;exitY=0;exitDx=0;exitDy=0;" parent="WIyWlLk6GJQsqaUBKTNV-1" source="5GM8z4mOyGDel2PGZHQb-1" edge="1">
          <mxGeometry width="50" height="50" relative="1" as="geometry">
            <mxPoint x="399" y="661" as="sourcePoint" />
            <mxPoint x="584" y="531" as="targetPoint" />
          </mxGeometry>
        </mxCell>
        <mxCell id="5GM8z4mOyGDel2PGZHQb-30" value="Binary format instrumentation (Strings, Parsing Binary etc...)" style="shape=ext;double=1;whiteSpace=wrap;html=1;aspect=fixed;rounded=0;sketch=0;fontColor=#ffffff;strokeColor=#001DBC;fillColor=#0050ef;glass=0;shadow=0;labelBorderColor=none;labelBackgroundColor=none;" parent="WIyWlLk6GJQsqaUBKTNV-1" vertex="1">
          <mxGeometry x="520" y="397" width="136" height="136" as="geometry" />
        </mxCell>
        <mxCell id="5GM8z4mOyGDel2PGZHQb-31" value="" style="edgeStyle=elbowEdgeStyle;elbow=vertical;endArrow=classic;html=1;rounded=1;sketch=0;fontColor=#FFFFFF;strokeColor=#FFFFFF;curved=0;exitX=0;exitY=0.5;exitDx=0;exitDy=0;" parent="WIyWlLk6GJQsqaUBKTNV-1" source="5GM8z4mOyGDel2PGZHQb-1" target="5GM8z4mOyGDel2PGZHQb-32" edge="1">
          <mxGeometry width="50" height="50" relative="1" as="geometry">
            <mxPoint x="439" y="776" as="sourcePoint" />
            <mxPoint x="-80" y="779" as="targetPoint" />
          </mxGeometry>
        </mxCell>
        <mxCell id="5GM8z4mOyGDel2PGZHQb-32" value="Unicorn emulate CPU" style="shape=ext;double=1;whiteSpace=wrap;html=1;aspect=fixed;rounded=0;sketch=0;fontColor=#ffffff;strokeColor=#001DBC;fillColor=#0050ef;glass=0;shadow=0;labelBorderColor=none;labelBackgroundColor=none;" parent="WIyWlLk6GJQsqaUBKTNV-1" vertex="1">
          <mxGeometry x="-383" y="921" width="136" height="136" as="geometry" />
        </mxCell>
        <mxCell id="Bjp69Qi42JGWj5VAg15p-1" value="" style="endArrow=classic;html=1;rounded=1;sketch=0;fontFamily=Helvetica;fontColor=#FFFFFF;strokeColor=#EEEEEE;curved=0;" edge="1" parent="WIyWlLk6GJQsqaUBKTNV-1" source="5GM8z4mOyGDel2PGZHQb-1">
          <mxGeometry width="50" height="50" relative="1" as="geometry">
            <mxPoint x="327" y="976" as="sourcePoint" />
            <mxPoint x="365" y="926" as="targetPoint" />
          </mxGeometry>
        </mxCell>
        <mxCell id="Bjp69Qi42JGWj5VAg15p-2" value="Buffer Utils Library" style="shape=ext;double=1;whiteSpace=wrap;html=1;aspect=fixed;rounded=0;sketch=0;fontColor=#ffffff;strokeColor=#001DBC;fillColor=#0050ef;glass=0;shadow=0;labelBorderColor=none;labelBackgroundColor=none;" vertex="1" parent="WIyWlLk6GJQsqaUBKTNV-1">
          <mxGeometry x="306" y="926" width="136" height="136" as="geometry" />
        </mxCell>
      </root>
    </mxGraphModel>
  </diagram>
  <diagram id="yXJBunUJngSngCmJJbtE" name="Opcodes Decoder">
    <mxGraphModel dx="1822" dy="825" grid="0" gridSize="10" guides="1" tooltips="1" connect="1" arrows="1" fold="1" page="0" pageScale="1" pageWidth="850" pageHeight="1100" background="#09555B" math="0" shadow="0">
      <root>
        <mxCell id="0" />
        <mxCell id="1" parent="0" />
        <mxCell id="LmdLaOiu_k6k6sUfDLwb-1" value="OPCODES INPUT" style="ellipse;whiteSpace=wrap;html=1;aspect=fixed;fillColor=#B1DDF0;strokeColor=#BAC8D3;fontColor=#182E3E;" vertex="1" parent="1">
          <mxGeometry x="-205.5" y="146" width="204" height="204" as="geometry" />
        </mxCell>
        <mxCell id="gSQJwMzAHlfcE-A-nyMB-1" value="Opcodes Decoder" style="text;strokeColor=#36393d;fillColor=#cce5ff;html=1;fontSize=24;fontStyle=1;verticalAlign=middle;align=center;rounded=0;sketch=0;gradientDirection=north;" vertex="1" parent="1">
          <mxGeometry x="-222" y="79" width="237" height="40" as="geometry" />
        </mxCell>
        <mxCell id="gSQJwMzAHlfcE-A-nyMB-15" value="" style="endArrow=classic;html=1;rounded=1;sketch=0;fontFamily=Helvetica;fontColor=#FFFFFF;strokeColor=#EEEEEE;curved=0;exitX=0.5;exitY=1;exitDx=0;exitDy=0;entryX=0.5;entryY=0;entryDx=0;entryDy=0;" edge="1" parent="1" source="LmdLaOiu_k6k6sUfDLwb-1" target="YSn_58sLNvzlUG96uM5t-4">
          <mxGeometry width="50" height="50" relative="1" as="geometry">
            <mxPoint x="-95" y="422" as="sourcePoint" />
            <mxPoint x="-103" y="414" as="targetPoint" />
          </mxGeometry>
        </mxCell>
        <mxCell id="YSn_58sLNvzlUG96uM5t-4" value="" style="rounded=0;whiteSpace=wrap;html=1;sketch=0;fontFamily=Helvetica;fontColor=#182E3E;strokeColor=default;fillColor=#66FF66;gradientColor=none;gradientDirection=north;align=center;" vertex="1" parent="1">
          <mxGeometry x="-254" y="445" width="299" height="182" as="geometry" />
        </mxCell>
        <mxCell id="YSn_58sLNvzlUG96uM5t-6" value="&lt;ol&gt;&lt;li&gt;ARCH [x86/ARM]&lt;/li&gt;&lt;li&gt;INPUT [BUFFER]&lt;/li&gt;&lt;li&gt;SIZE&amp;nbsp; &amp;nbsp;[SIZE BUFFER]&lt;/li&gt;&lt;/ol&gt;" style="text;strokeColor=none;fillColor=none;html=1;whiteSpace=wrap;verticalAlign=middle;overflow=hidden;rounded=0;sketch=0;fontFamily=Helvetica;fontColor=#182E3E;" vertex="1" parent="1">
          <mxGeometry x="-197" y="503" width="205" height="80" as="geometry" />
        </mxCell>
        <mxCell id="YSn_58sLNvzlUG96uM5t-7" value="&lt;font style=&quot;font-size: 16px;&quot;&gt;Init Decoder Context&lt;/font&gt;" style="text;strokeColor=none;fillColor=none;html=1;fontSize=24;fontStyle=1;verticalAlign=middle;align=center;rounded=0;sketch=0;fontFamily=Helvetica;fontColor=#182E3E;" vertex="1" parent="1">
          <mxGeometry x="-144" y="463" width="100" height="40" as="geometry" />
        </mxCell>
      </root>
    </mxGraphModel>
  </diagram>
</mxfile>
